%TF.GenerationSoftware,KiCad,Pcbnew,9.0.4*%
%TF.CreationDate,2026-01-01T00:54:31+01:00*%
%TF.ProjectId,Smart Irrigation System,536d6172-7420-4497-9272-69676174696f,rev?*%
%TF.SameCoordinates,Original*%
%TF.FileFunction,Copper,L1,Top*%
%TF.FilePolarity,Positive*%
%FSLAX46Y46*%
G04 Gerber Fmt 4.6, Leading zero omitted, Abs format (unit mm)*
G04 Created by KiCad (PCBNEW 9.0.4) date 2026-01-01 00:54:31*
%MOMM*%
%LPD*%
G01*
G04 APERTURE LIST*
G04 Aperture macros list*
%AMRoundRect*
0 Rectangle with rounded corners*
0 $1 Rounding radius*
0 $2 $3 $4 $5 $6 $7 $8 $9 X,Y pos of 4 corners*
0 Add a 4 corners polygon primitive as box body*
4,1,4,$2,$3,$4,$5,$6,$7,$8,$9,$2,$3,0*
0 Add four circle primitives for the rounded corners*
1,1,$1+$1,$2,$3*
1,1,$1+$1,$4,$5*
1,1,$1+$1,$6,$7*
1,1,$1+$1,$8,$9*
0 Add four rect primitives between the rounded corners*
20,1,$1+$1,$2,$3,$4,$5,0*
20,1,$1+$1,$4,$5,$6,$7,0*
20,1,$1+$1,$6,$7,$8,$9,0*
20,1,$1+$1,$8,$9,$2,$3,0*%
G04 Aperture macros list end*
%TA.AperFunction,ComponentPad*%
%ADD10RoundRect,0.250000X-0.550000X-0.550000X0.550000X-0.550000X0.550000X0.550000X-0.550000X0.550000X0*%
%TD*%
%TA.AperFunction,ComponentPad*%
%ADD11C,1.600000*%
%TD*%
G04 APERTURE END LIST*
D10*
%TO.P,U1,1,PB0*%
%TO.N,unconnected-(U1-PB0-Pad1)*%
X87760000Y-57740000D03*
D11*
%TO.P,U1,2,PB1*%
%TO.N,unconnected-(U1-PB1-Pad2)*%
X87760000Y-60280000D03*
%TO.P,U1,3,PB2*%
%TO.N,unconnected-(U1-PB2-Pad3)*%
X87760000Y-62820000D03*
%TO.P,U1,4,PB3*%
%TO.N,unconnected-(U1-PB3-Pad4)*%
X87760000Y-65360000D03*
%TO.P,U1,5,PB4*%
%TO.N,unconnected-(U1-PB4-Pad5)*%
X87760000Y-67900000D03*
%TO.P,U1,6,PB5*%
%TO.N,unconnected-(U1-PB5-Pad6)*%
X87760000Y-70440000D03*
%TO.P,U1,7,PB6*%
%TO.N,Net-(U1-PB6)*%
X87760000Y-72980000D03*
%TO.P,U1,8,PB7*%
%TO.N,unconnected-(U1-PB7-Pad8)*%
X87760000Y-75520000D03*
%TO.P,U1,9,~{RESET}*%
%TO.N,unconnected-(U1-~{RESET}-Pad9)*%
X87760000Y-78060000D03*
%TO.P,U1,10,VCC*%
%TO.N,unconnected-(U1-VCC-Pad10)*%
X87760000Y-80600000D03*
%TO.P,U1,11,GND*%
%TO.N,Net-(U1-GND-Pad11)*%
X87760000Y-83140000D03*
%TO.P,U1,12,XTAL2*%
%TO.N,unconnected-(U1-XTAL2-Pad12)*%
X87760000Y-85680000D03*
%TO.P,U1,13,XTAL1*%
%TO.N,unconnected-(U1-XTAL1-Pad13)*%
X87760000Y-88220000D03*
%TO.P,U1,14,PD0*%
%TO.N,unconnected-(U1-PD0-Pad14)*%
X87760000Y-90760000D03*
%TO.P,U1,15,PD1*%
%TO.N,unconnected-(U1-PD1-Pad15)*%
X87760000Y-93300000D03*
%TO.P,U1,16,PD2*%
%TO.N,unconnected-(U1-PD2-Pad16)*%
X87760000Y-95840000D03*
%TO.P,U1,17,PD3*%
%TO.N,unconnected-(U1-PD3-Pad17)*%
X87760000Y-98380000D03*
%TO.P,U1,18,PD4*%
%TO.N,unconnected-(U1-PD4-Pad18)*%
X87760000Y-100920000D03*
%TO.P,U1,19,PD5*%
%TO.N,unconnected-(U1-PD5-Pad19)*%
X87760000Y-103460000D03*
%TO.P,U1,20,PD6*%
%TO.N,unconnected-(U1-PD6-Pad20)*%
X87760000Y-106000000D03*
%TO.P,U1,21,PD7*%
%TO.N,unconnected-(U1-PD7-Pad21)*%
X103000000Y-106000000D03*
%TO.P,U1,22,PC0*%
%TO.N,unconnected-(U1-PC0-Pad22)*%
X103000000Y-103460000D03*
%TO.P,U1,23,PC1*%
%TO.N,unconnected-(U1-PC1-Pad23)*%
X103000000Y-100920000D03*
%TO.P,U1,24,PC2*%
%TO.N,unconnected-(U1-PC2-Pad24)*%
X103000000Y-98380000D03*
%TO.P,U1,25,PC3*%
%TO.N,unconnected-(U1-PC3-Pad25)*%
X103000000Y-95840000D03*
%TO.P,U1,26,PC4*%
%TO.N,unconnected-(U1-PC4-Pad26)*%
X103000000Y-93300000D03*
%TO.P,U1,27,PC5*%
%TO.N,unconnected-(U1-PC5-Pad27)*%
X103000000Y-90760000D03*
%TO.P,U1,28,PC6*%
%TO.N,unconnected-(U1-PC6-Pad28)*%
X103000000Y-88220000D03*
%TO.P,U1,29,PC7*%
%TO.N,unconnected-(U1-PC7-Pad29)*%
X103000000Y-85680000D03*
%TO.P,U1,30,AVCC*%
%TO.N,unconnected-(U1-AVCC-Pad30)*%
X103000000Y-83140000D03*
%TO.P,U1,31,GND*%
%TO.N,Net-(U1-GND-Pad11)*%
X103000000Y-80600000D03*
%TO.P,U1,32,AREF*%
%TO.N,unconnected-(U1-AREF-Pad32)*%
X103000000Y-78060000D03*
%TO.P,U1,33,PA7*%
%TO.N,Net-(J1-Pin_3)*%
X103000000Y-75520000D03*
%TO.P,U1,34,PA6*%
%TO.N,unconnected-(U1-PA6-Pad34)*%
X103000000Y-72980000D03*
%TO.P,U1,35,PA5*%
%TO.N,unconnected-(U1-PA5-Pad35)*%
X103000000Y-70440000D03*
%TO.P,U1,36,PA4*%
%TO.N,unconnected-(U1-PA4-Pad36)*%
X103000000Y-67900000D03*
%TO.P,U1,37,PA3*%
%TO.N,unconnected-(U1-PA3-Pad37)*%
X103000000Y-65360000D03*
%TO.P,U1,38,PA2*%
%TO.N,unconnected-(U1-PA2-Pad38)*%
X103000000Y-62820000D03*
%TO.P,U1,39,PA1*%
%TO.N,unconnected-(U1-PA1-Pad39)*%
X103000000Y-60280000D03*
%TO.P,U1,40,PA0*%
%TO.N,Net-(D1-K)*%
X103000000Y-57740000D03*
%TD*%
M02*
