M48
; DRILL file {KiCad 9.0.4} date 2026-01-01T00:54:36+0100
; FORMAT={-:-/ absolute / metric / decimal}
; #@! TF.CreationDate,2026-01-01T00:54:36+01:00
; #@! TF.GenerationSoftware,Kicad,Pcbnew,9.0.4
; #@! TF.FileFunction,Plated,1,2,PTH
FMAT,2
METRIC
; #@! TA.AperFunction,Plated,PTH,ComponentDrill
T1C0.800
%
G90
G05
T1
X87.76Y-57.74
X87.76Y-60.28
X87.76Y-62.82
X87.76Y-65.36
X87.76Y-67.9
X87.76Y-70.44
X87.76Y-72.98
X87.76Y-75.52
X87.76Y-78.06
X87.76Y-80.6
X87.76Y-83.14
X87.76Y-85.68
X87.76Y-88.22
X87.76Y-90.76
X87.76Y-93.3
X87.76Y-95.84
X87.76Y-98.38
X87.76Y-100.92
X87.76Y-103.46
X87.76Y-106.0
X103.0Y-57.74
X103.0Y-60.28
X103.0Y-62.82
X103.0Y-65.36
X103.0Y-67.9
X103.0Y-70.44
X103.0Y-72.98
X103.0Y-75.52
X103.0Y-78.06
X103.0Y-80.6
X103.0Y-83.14
X103.0Y-85.68
X103.0Y-88.22
X103.0Y-90.76
X103.0Y-93.3
X103.0Y-95.84
X103.0Y-98.38
X103.0Y-100.92
X103.0Y-103.46
X103.0Y-106.0
M30
